# xmcd CD database file generated by OrangeCD 5.2
#
# Track frame offsets:
#	150
#	19017
#	41726
#
# Disc length: 880 seconds
#
# Revision: 0
# Processed by: cddbd v1.5.2PL0 Copyright (c) Steve Scherf et al.
# Submitted via: OrangeCD 5.2
#
DISCID=1c036e03
DTITLE=West End Girls - Domino Dancing [CD Maxi)
DYEAR=2005
DGENRE=Pop
TTITLE0=Domino Dancing [Original Version]
TTITLE1=Domino Dancing [Extended Version]
TTITLE2=Domino Dancing [Wet Set Remix - Extended Version]
EXTD=
EXTT0=
EXTT1=
EXTT2=
PLAYORDER=
